<svg width="247" height="52" viewBox="0 0 247 52" fill="none" xmlns="http://www.w3.org/2000/svg">
<path d="M21.9844 4.76562L5.1875 14.5312L22.375 24.3945L39.5625 14.2383L22.7656 4.76562L23.9375 2.71484L22.7656 4.76562C22.5052 4.57031 22.2448 4.57031 21.9844 4.76562ZM3.625 17.2656V37.0898C3.625 37.3503 3.75521 37.5781 4.01562 37.7734L20.8125 47.1484V27.1289L3.625 17.2656ZM23.9375 47.1484L40.7344 37.7734C40.9948 37.5781 41.125 37.3503 41.125 37.0898V16.9727L23.9375 27.1289V47.1484ZM20.4219 2.03125C21.724 1.3151 23.026 1.3151 24.3281 2.03125L42.2969 12.1875C43.5339 12.9688 44.1849 14.1081 44.25 15.6055V37.0898C44.1849 38.5872 43.5339 39.7266 42.2969 40.5078L24.3281 50.5664C23.026 51.2174 21.724 51.2174 20.4219 50.5664L2.45312 40.5078C1.21615 39.7266 0.565104 38.5872 0.5 37.0898V15.8984C0.565104 14.4661 1.21615 13.3594 2.45312 12.5781L20.4219 2.03125Z" fill="url(#paint0_linear_5_162)"/>
<path d="M63.5 40V12H65.66V40H63.5ZM85.8069 35.3L87.7269 36.34C86.8202 37.6067 85.6669 38.62 84.2669 39.38C82.8802 40.14 81.3735 40.52 79.7469 40.52C77.9069 40.52 76.2269 40.0467 74.7069 39.1C73.2002 38.1533 71.9935 36.8867 71.0869 35.3C70.1935 33.7 69.7469 31.9333 69.7469 30C69.7469 28.5333 70.0069 27.1667 70.5269 25.9C71.0469 24.62 71.7602 23.5 72.6669 22.54C73.5869 21.5667 74.6535 20.8067 75.8669 20.26C77.0802 19.7133 78.3735 19.44 79.7469 19.44C81.3735 19.44 82.8802 19.82 84.2669 20.58C85.6669 21.34 86.8202 22.36 87.7269 23.64L85.8069 24.66C85.0469 23.6733 84.1269 22.92 83.0469 22.4C81.9669 21.8667 80.8669 21.6 79.7469 21.6C78.2802 21.6 76.9535 21.9867 75.7669 22.76C74.5802 23.52 73.6402 24.54 72.9469 25.82C72.2535 27.0867 71.9069 28.48 71.9069 30C71.9069 31.5333 72.2602 32.9333 72.9669 34.2C73.6735 35.4667 74.6202 36.48 75.8069 37.24C76.9935 37.9867 78.3069 38.36 79.7469 38.36C80.9602 38.36 82.1002 38.0733 83.1669 37.5C84.2335 36.9267 85.1135 36.1933 85.8069 35.3ZM99.9813 40.52C98.1413 40.52 96.4613 40.0467 94.9413 39.1C93.4346 38.1533 92.2279 36.8867 91.3213 35.3C90.4279 33.7 89.9813 31.9333 89.9813 30C89.9813 28.5333 90.2413 27.1667 90.7613 25.9C91.2813 24.62 91.9946 23.5 92.9013 22.54C93.8213 21.5667 94.8879 20.8067 96.1013 20.26C97.3146 19.7133 98.6079 19.44 99.9813 19.44C101.435 19.44 102.775 19.7267 104.001 20.3C105.241 20.86 106.308 21.6533 107.201 22.68C108.095 23.7067 108.781 24.92 109.261 26.32C109.741 27.7067 109.961 29.2267 109.921 30.88H92.2413C92.3879 32.3067 92.8146 33.5867 93.5213 34.72C94.2413 35.84 95.1613 36.7267 96.2813 37.38C97.4013 38.02 98.6346 38.3467 99.9813 38.36C101.461 38.36 102.795 37.9733 103.981 37.2C105.168 36.4133 106.121 35.34 106.841 33.98L109.021 34.48C108.221 36.2533 107.015 37.7067 105.401 38.84C103.788 39.96 101.981 40.52 99.9813 40.52ZM92.1813 29.04H107.741C107.661 27.6667 107.261 26.4067 106.541 25.26C105.835 24.1 104.908 23.1733 103.761 22.48C102.615 21.7867 101.355 21.44 99.9813 21.44C98.6079 21.44 97.3546 21.78 96.2213 22.46C95.0879 23.14 94.1613 24.06 93.4413 25.22C92.7346 26.3667 92.3146 27.64 92.1813 29.04ZM122.991 19.44C124.924 19.44 126.684 19.9133 128.271 20.86C129.871 21.8067 131.144 23.08 132.091 24.68C133.037 26.2667 133.511 28.0333 133.511 29.98C133.511 31.4333 133.237 32.8 132.691 34.08C132.144 35.3467 131.384 36.4667 130.411 37.44C129.451 38.4 128.337 39.1533 127.071 39.7C125.804 40.2467 124.444 40.52 122.991 40.52C121.217 40.52 119.691 40.0933 118.411 39.24C117.144 38.3867 116.157 37.2667 115.451 35.88V40H113.291V10H115.451V24.08C116.157 22.6933 117.144 21.5733 118.411 20.72C119.691 19.8667 121.217 19.44 122.991 19.44ZM122.971 38.4C124.517 38.4 125.917 38.02 127.171 37.26C128.437 36.5 129.444 35.4867 130.191 34.22C130.951 32.94 131.331 31.5267 131.331 29.98C131.331 28.4067 130.944 26.9867 130.171 25.72C129.397 24.44 128.377 23.4267 127.111 22.68C125.857 21.9333 124.477 21.56 122.971 21.56C121.437 21.56 120.117 21.94 119.011 22.7C117.917 23.46 117.077 24.48 116.491 25.76C115.904 27.04 115.611 28.4467 115.611 29.98C115.611 31.5533 115.904 32.9733 116.491 34.24C117.091 35.5067 117.937 36.52 119.031 37.28C120.137 38.0267 121.451 38.4 122.971 38.4ZM137.002 40V20H139.162V23.06C139.882 21.9533 140.835 21.0733 142.022 20.42C143.208 19.7667 144.502 19.44 145.902 19.44C146.688 19.44 147.442 19.54 148.162 19.74L147.262 21.86C146.688 21.7 146.128 21.62 145.582 21.62C144.408 21.62 143.335 21.9067 142.362 22.48C141.388 23.0533 140.608 23.8267 140.022 24.8C139.448 25.7733 139.162 26.8533 139.162 28.04V40H137.002ZM158.458 40.52C156.618 40.52 154.938 40.0467 153.418 39.1C151.911 38.1533 150.704 36.8867 149.798 35.3C148.904 33.7 148.458 31.9333 148.458 30C148.458 28.5333 148.718 27.1667 149.238 25.9C149.758 24.62 150.471 23.5 151.378 22.54C152.298 21.5667 153.364 20.8067 154.578 20.26C155.791 19.7133 157.084 19.44 158.458 19.44C159.911 19.44 161.251 19.7267 162.478 20.3C163.718 20.86 164.784 21.6533 165.678 22.68C166.571 23.7067 167.258 24.92 167.738 26.32C168.218 27.7067 168.438 29.2267 168.398 30.88H150.718C150.864 32.3067 151.291 33.5867 151.998 34.72C152.718 35.84 153.638 36.7267 154.758 37.38C155.878 38.02 157.111 38.3467 158.458 38.36C159.938 38.36 161.271 37.9733 162.458 37.2C163.644 36.4133 164.598 35.34 165.318 33.98L167.498 34.48C166.698 36.2533 165.491 37.7067 163.878 38.84C162.264 39.96 160.458 40.52 158.458 40.52ZM150.658 29.04H166.218C166.138 27.6667 165.738 26.4067 165.018 25.26C164.311 24.1 163.384 23.1733 162.238 22.48C161.091 21.7867 159.831 21.44 158.458 21.44C157.084 21.44 155.831 21.78 154.698 22.46C153.564 23.14 152.638 24.06 151.918 25.22C151.211 26.3667 150.791 27.64 150.658 29.04ZM188.471 20H190.631V40H188.471L188.411 35.9C187.731 37.2867 186.758 38.4067 185.491 39.26C184.238 40.1 182.731 40.52 180.971 40.52C179.518 40.52 178.151 40.2467 176.871 39.7C175.604 39.14 174.484 38.38 173.511 37.42C172.538 36.4467 171.778 35.3267 171.231 34.06C170.684 32.78 170.411 31.4067 170.411 29.94C170.411 28.4867 170.678 27.1267 171.211 25.86C171.758 24.5933 172.511 23.48 173.471 22.52C174.431 21.5467 175.544 20.7933 176.811 20.26C178.078 19.7133 179.431 19.44 180.871 19.44C182.644 19.44 184.178 19.8733 185.471 20.74C186.778 21.5933 187.798 22.7133 188.531 24.1L188.471 20ZM180.951 38.4C182.484 38.4 183.798 38.0267 184.891 37.28C185.998 36.52 186.844 35.5 187.431 34.22C188.018 32.94 188.311 31.5333 188.311 30C188.311 28.4267 188.011 27.0067 187.411 25.74C186.824 24.46 185.978 23.4467 184.871 22.7C183.778 21.94 182.471 21.56 180.951 21.56C179.404 21.56 177.998 21.94 176.731 22.7C175.478 23.46 174.478 24.48 173.731 25.76C172.984 27.04 172.611 28.4533 172.611 30C172.611 31.5733 172.991 32.9933 173.751 34.26C174.524 35.5267 175.544 36.5333 176.811 37.28C178.078 38.0267 179.458 38.4 180.951 38.4ZM209.851 40H207.371L201.451 29.78L197.091 35V40H194.931V10H197.091V31.64L206.851 20H209.671L202.911 28.02L209.851 40ZM221.348 40.52C219.508 40.52 217.828 40.0467 216.308 39.1C214.802 38.1533 213.595 36.8867 212.688 35.3C211.795 33.7 211.348 31.9333 211.348 30C211.348 28.5333 211.608 27.1667 212.128 25.9C212.648 24.62 213.362 23.5 214.268 22.54C215.188 21.5667 216.255 20.8067 217.468 20.26C218.682 19.7133 219.975 19.44 221.348 19.44C222.802 19.44 224.142 19.7267 225.368 20.3C226.608 20.86 227.675 21.6533 228.568 22.68C229.462 23.7067 230.148 24.92 230.628 26.32C231.108 27.7067 231.328 29.2267 231.288 30.88H213.608C213.755 32.3067 214.182 33.5867 214.888 34.72C215.608 35.84 216.528 36.7267 217.648 37.38C218.768 38.02 220.002 38.3467 221.348 38.36C222.828 38.36 224.162 37.9733 225.348 37.2C226.535 36.4133 227.488 35.34 228.208 33.98L230.388 34.48C229.588 36.2533 228.382 37.7067 226.768 38.84C225.155 39.96 223.348 40.52 221.348 40.52ZM213.548 29.04H229.108C229.028 27.6667 228.628 26.4067 227.908 25.26C227.202 24.1 226.275 23.1733 225.128 22.48C223.982 21.7867 222.722 21.44 221.348 21.44C219.975 21.44 218.722 21.78 217.588 22.46C216.455 23.14 215.528 24.06 214.808 25.22C214.102 26.3667 213.682 27.64 213.548 29.04ZM234.775 40V20H236.935V23.06C237.655 21.9533 238.608 21.0733 239.795 20.42C240.982 19.7667 242.275 19.44 243.675 19.44C244.462 19.44 245.215 19.54 245.935 19.74L245.035 21.86C244.462 21.7 243.902 21.62 243.355 21.62C242.182 21.62 241.108 21.9067 240.135 22.48C239.162 23.0533 238.382 23.8267 237.795 24.8C237.222 25.7733 236.935 26.8533 236.935 28.04V40H234.775Z" fill="#606074"/>
<defs>
<linearGradient id="paint0_linear_5_162" x1="3.7288" y1="14.2587" x2="53.865" y2="49.9279" gradientUnits="userSpaceOnUse">
<stop stop-color="#1F78FF"/>
<stop offset="1" stop-color="#52E0FF"/>
</linearGradient>
</defs>
</svg>
