<svg width="20" height="19" viewBox="0 0 20 19" fill="none" xmlns="http://www.w3.org/2000/svg">
<path d="M5.42566 5.08594C4.74858 5.78906 4.25378 6.57031 3.94128 7.42969C3.81108 7.74219 3.60274 7.97656 3.31628 8.13281C3.00378 8.26302 2.67826 8.27604 2.33972 8.17188C2.02722 8.04167 1.79285 7.83333 1.6366 7.54688C1.50639 7.23438 1.49337 6.90885 1.59753 6.57031C2.0142 5.3724 2.70431 4.29167 3.66785 3.32812C4.81368 2.18229 6.12878 1.41406 7.61316 1.02344C9.07149 0.658854 10.5428 0.658854 12.0272 1.02344C13.5116 1.38802 14.8267 2.14323 15.9725 3.28906L17.6132 1.64844C17.9257 1.36198 18.2642 1.29688 18.6288 1.45312C18.9934 1.60938 19.1887 1.89583 19.2147 2.3125V7.3125C19.1626 7.88542 18.8501 8.19792 18.2772 8.25H17.9647H13.2772C12.8606 8.22396 12.5741 8.02865 12.4178 7.66406C12.2616 7.29948 12.3267 6.96094 12.6132 6.64844L14.2147 5.04688C12.9387 3.84896 11.4673 3.25 9.80066 3.25C8.16003 3.25 6.7017 3.86198 5.42566 5.08594ZM0.464722 11.6875C0.516805 11.1146 0.829305 10.8021 1.40222 10.75H1.71472H6.40222C6.81889 10.776 7.10535 10.9714 7.2616 11.3359C7.41785 11.7005 7.35274 12.0391 7.06628 12.3516L5.46472 13.9531C6.74076 15.151 8.21212 15.75 9.87878 15.75C11.5194 15.75 12.9777 15.138 14.2538 13.9141C14.9569 13.237 15.4517 12.4557 15.7382 11.5703C15.8684 11.2578 16.0767 11.0234 16.3632 10.8672C16.6757 10.737 17.0012 10.724 17.3397 10.8281C17.6522 10.9583 17.8866 11.1667 18.0428 11.4531C18.1991 11.7656 18.2121 12.0911 18.0819 12.4297C17.6652 13.6276 16.9751 14.7083 16.0116 15.6719C14.8658 16.8177 13.5507 17.5859 12.0663 17.9766C10.608 18.3411 9.1366 18.3411 7.65222 17.9766C6.16785 17.612 4.85274 16.8568 3.70691 15.7109L2.06628 17.3516C1.75378 17.638 1.41524 17.7031 1.05066 17.5469C0.686076 17.3906 0.490763 17.1042 0.464722 16.6875V12V11.6875Z" fill="#FDB0FF"/>
</svg>
